<?xml version="1.0" encoding="UTF-8" standalone="no"?>
<!-- Created with Inkscape (http://www.inkscape.org/) -->

<svg
   xmlns:dc="http://purl.org/dc/elements/1.1/"
   xmlns:cc="http://creativecommons.org/ns#"
   xmlns:rdf="http://www.w3.org/1999/02/22-rdf-syntax-ns#"
   xmlns:svg="http://www.w3.org/2000/svg"
   xmlns="http://www.w3.org/2000/svg"
   xmlns:sodipodi="http://sodipodi.sourceforge.net/DTD/sodipodi-0.dtd"
   xmlns:inkscape="http://www.inkscape.org/namespaces/inkscape"
   width="1000"
   height="1000"
   id="svg2"
   version="1.1"
   inkscape:version="0.48.2 r9819"
   sodipodi:docname="background-02.svg">
  <defs
     id="defs4" />
  <sodipodi:namedview
     id="base"
     pagecolor="#ffffff"
     bordercolor="#666666"
     borderopacity="1.0"
     inkscape:pageopacity="0.0"
     inkscape:pageshadow="2"
     inkscape:zoom="1"
     inkscape:cx="234.33756"
     inkscape:cy="324.60895"
     inkscape:document-units="px"
     inkscape:current-layer="layer1"
     showgrid="false"
     showborder="true"
     borderlayer="false"
     inkscape:showpageshadow="false"
     inkscape:snap-bbox="true"
     inkscape:bbox-paths="true"
     inkscape:window-width="1440"
     inkscape:window-height="798"
     inkscape:window-x="-1"
     inkscape:window-y="3"
     inkscape:window-maximized="0" />
  <metadata
     id="metadata7">
    <rdf:RDF>
      <cc:Work
         rdf:about="">
        <dc:format>image/svg+xml</dc:format>
        <dc:type
           rdf:resource="http://purl.org/dc/dcmitype/StillImage" />
        <dc:title></dc:title>
      </cc:Work>
    </rdf:RDF>
  </metadata>
  <g
     inkscape:label="Layer 1"
     inkscape:groupmode="layer"
     id="layer1"
     transform="translate(0,-52.362183)">
    <path
       style="fill:#800000;fill-rule:evenodd;stroke:#000000;stroke-width:0;stroke-linecap:butt;stroke-linejoin:miter;stroke-miterlimit:4;stroke-opacity:1;stroke-dasharray:none"
       d="M 0 0 L 0 1000 L 1000 1000 L 1000 0 L 0 0 z M 2 2 L 98 2 L 98 98 L 2 98 L 2 2 z M 102 2 L 198 2 L 198 98 L 102 98 L 102 2 z M 202 2 L 298 2 L 298 98 L 202 98 L 202 2 z M 302 2 L 398 2 L 398 98 L 302 98 L 302 2 z M 402 2 L 498 2 L 498 98 L 402 98 L 402 2 z M 502 2 L 598 2 L 598 98 L 502 98 L 502 2 z M 602 2 L 698 2 L 698 98 L 602 98 L 602 2 z M 702 2 L 798 2 L 798 98 L 702 98 L 702 2 z M 802 2 L 898 2 L 898 98 L 802 98 L 802 2 z M 902 2 L 998 2 L 998 98 L 902 98 L 902 2 z M 2 102 L 98 102 L 98 198 L 2 198 L 2 102 z M 102 102 L 198 102 L 198 198 L 102 198 L 102 102 z M 202 102 L 298 102 L 298 198 L 202 198 L 202 102 z M 302 102 L 398 102 L 398 198 L 302 198 L 302 102 z M 402 102 L 498 102 L 498 198 L 402 198 L 402 102 z M 502 102 L 598 102 L 598 198 L 502 198 L 502 102 z M 602 102 L 698 102 L 698 198 L 602 198 L 602 102 z M 702 102 L 798 102 L 798 198 L 702 198 L 702 102 z M 850 102 C 876.50967 102 898 123.49033 898 150 C 898 176.50967 876.50967 198 850 198 C 823.49033 198 802 176.50967 802 150 C 802 123.49033 823.49033 102 850 102 z M 902 102 L 998 102 L 998 198 L 902 198 L 902 102 z M 2 202 L 98 202 L 98 298 L 2 298 L 2 202 z M 102 202 L 198 202 L 198 298 L 102 298 L 102 202 z M 250 202 C 276.50967 202 298 223.49033 298 250 C 298 276.50967 276.50967 298 250 298 C 223.49033 298 202 276.50967 202 250 C 202 223.49033 223.49033 202 250 202 z M 302 202 L 398 202 L 398 298 L 302 298 L 302 202 z M 402 202 L 498 202 L 498 298 L 402 298 L 402 202 z M 502 202 L 598 202 L 598 298 L 502 298 L 502 202 z M 602 202 L 698 202 L 698 298 L 602 298 L 602 202 z M 702 202 L 798 202 L 798 298 L 702 298 L 702 202 z M 802 202 L 898 202 L 898 298 L 802 298 L 802 202 z M 902 202 L 998 202 L 998 298 L 902 298 L 902 202 z M 2 302 L 98 302 L 98 398 L 2 398 L 2 302 z M 102 302 L 198 302 L 198 398 L 102 398 L 102 302 z M 202 302 L 298 302 L 298 398 L 202 398 L 202 302 z M 302 302 L 398 302 L 398 398 L 302 398 L 302 302 z M 402 302 L 498 302 L 498 398 L 402 398 L 402 302 z M 502 302 L 598 302 L 598 398 L 502 398 L 502 302 z M 602 302 L 698 302 L 698 398 L 602 398 L 602 302 z M 702 302 L 798 302 L 798 398 L 702 398 L 702 302 z M 802 302 L 898 302 L 898 398 L 802 398 L 802 302 z M 902 302 L 998 302 L 998 398 L 902 398 L 902 302 z M 2 402 L 98 402 L 98 498 L 2 498 L 2 402 z M 102 402 L 198 402 L 198 498 L 102 498 L 102 402 z M 202 402 L 298 402 L 298 498 L 202 498 L 202 402 z M 302 402 L 398 402 L 398 498 L 302 498 L 302 402 z M 402 402 L 498 402 L 498 498 L 402 498 L 402 402 z M 550 402 C 576.50967 402 598 423.49033 598 450 C 598 476.50967 576.50967 498 550 498 C 523.49033 498 502 476.50967 502 450 C 502 423.49033 523.49033 402 550 402 z M 602 402 L 698 402 L 698 498 L 602 498 L 602 402 z M 702 402 L 798 402 L 798 498 L 702 498 L 702 402 z M 802 402 L 898 402 L 898 498 L 802 498 L 802 402 z M 902 402 L 998 402 L 998 498 L 902 498 L 902 402 z M 2 502 L 98 502 L 98 598 L 2 598 L 2 502 z M 150 502 C 176.50967 502 198 523.49033 198 550 C 198 576.50967 176.50967 598 150 598 C 123.49033 598 102 576.50967 102 550 C 102 523.49033 123.49033 502 150 502 z M 202 502 L 298 502 L 298 598 L 202 598 L 202 502 z M 302 502 L 398 502 L 398 598 L 302 598 L 302 502 z M 402 502 L 498 502 L 498 598 L 402 598 L 402 502 z M 502 502 L 598 502 L 598 598 L 502 598 L 502 502 z M 602 502 L 698 502 L 698 598 L 602 598 L 602 502 z M 702 502 L 798 502 L 798 598 L 702 598 L 702 502 z M 802 502 L 898 502 L 898 598 L 802 598 L 802 502 z M 902 502 L 998 502 L 998 598 L 902 598 L 902 502 z M 2 602 L 98 602 L 98 698 L 2 698 L 2 602 z M 102 602 L 198 602 L 198 698 L 102 698 L 102 602 z M 202 602 L 298 602 L 298 698 L 202 698 L 202 602 z M 302 602 L 398 602 L 398 698 L 302 698 L 302 602 z M 402 602 L 498 602 L 498 698 L 402 698 L 402 602 z M 502 602 L 598 602 L 598 698 L 502 698 L 502 602 z M 602 602 L 698 602 L 698 698 L 602 698 L 602 602 z M 750 602 C 776.50967 602 798 623.49033 798 650 C 798 676.50967 776.50967 698 750 698 C 723.49033 698 702 676.50967 702 650 C 702 623.49033 723.49033 602 750 602 z M 802 602 L 898 602 L 898 698 L 802 698 L 802 602 z M 902 602 L 998 602 L 998 698 L 902 698 L 902 602 z M 2 702 L 98 702 L 98 798 L 2 798 L 2 702 z M 102 702 L 198 702 L 198 798 L 102 798 L 102 702 z M 202 702 L 298 702 L 298 798 L 202 798 L 202 702 z M 350 702 C 376.50967 702 398 723.49033 398 750 C 398 776.50967 376.50967 798 350 798 C 323.49033 798 302 776.50967 302 750 C 302 723.49033 323.49033 702 350 702 z M 402 702 L 498 702 L 498 798 L 402 798 L 402 702 z M 502 702 L 598 702 L 598 798 L 502 798 L 502 702 z M 602 702 L 698 702 L 698 798 L 602 798 L 602 702 z M 702 702 L 798 702 L 798 798 L 702 798 L 702 702 z M 802 702 L 898 702 L 898 798 L 802 798 L 802 702 z M 902 702 L 998 702 L 998 798 L 902 798 L 902 702 z M 2 802 L 98 802 L 98 898 L 2 898 L 2 802 z M 102 802 L 198 802 L 198 898 L 102 898 L 102 802 z M 202 802 L 298 802 L 298 898 L 202 898 L 202 802 z M 302 802 L 398 802 L 398 898 L 302 898 L 302 802 z M 402 802 L 498 802 L 498 898 L 402 898 L 402 802 z M 502 802 L 598 802 L 598 898 L 502 898 L 502 802 z M 602 802 L 698 802 L 698 898 L 602 898 L 602 802 z M 702 802 L 798 802 L 798 898 L 702 898 L 702 802 z M 802 802 L 898 802 L 898 898 L 802 898 L 802 802 z M 902 802 L 998 802 L 998 898 L 902 898 L 902 802 z M 2 902 L 98 902 L 98 998 L 2 998 L 2 902 z M 102 902 L 198 902 L 198 998 L 102 998 L 102 902 z M 202 902 L 298 902 L 298 998 L 202 998 L 202 902 z M 302 902 L 398 902 L 398 998 L 302 998 L 302 902 z M 402 902 L 498 902 L 498 998 L 402 998 L 402 902 z M 502 902 L 598 902 L 598 998 L 502 998 L 502 902 z M 602 902 L 698 902 L 698 998 L 602 998 L 602 902 z M 702 902 L 798 902 L 798 998 L 702 998 L 702 902 z M 850 902 C 876.50967 902 898 923.49033 898 950 C 898 976.50967 876.50967 998 850 998 C 823.49033 998 802 976.50967 802 950 C 802 923.49033 823.49033 902 850 902 z M 902 902 L 998 902 L 998 998 L 902 998 L 902 902 z "
       transform="translate(0,52.362183)"
       id="rect2993"
       inkscape:export-filename="/Users/thomassecondary/Projects/webapp-01(trunk)/documents/background-02.png"
       inkscape:export-xdpi="90"
       inkscape:export-ydpi="90" />
  </g>
</svg>
